<?xml version="1.0" standalone="no"?>
<!DOCTYPE svg PUBLIC "-//W3C//DTD SVG 20010904//EN"
 "http://www.w3.org/TR/2001/REC-SVG-20010904/DTD/svg10.dtd">
<svg version="1.0" xmlns="http://www.w3.org/2000/svg"
 width="840.000000pt" height="634.000000pt" viewBox="0 0 840.000000 634.000000"
 preserveAspectRatio="xMidYMid meet">

<g transform="translate(0.000000,634.000000) scale(0.100000,-0.100000)"
fill="#000000" stroke="none">
<path d="M4355 5900 c-33 -11 -73 -31 -90 -46 l-30 -26 32 21 c50 34 112 52
198 61 l80 7 -65 1 c-39 1 -89 -7 -125 -18z"/>
<path d="M4587 5896 c23 -8 63 -25 89 -40 39 -22 45 -23 29 -7 -19 22 -114 61
-143 60 -9 0 2 -6 25 -13z"/>
<path d="M4440 5878 c-21 -23 -27 -72 -9 -84 6 -3 34 16 62 42 l52 49 -49 -52
c-51 -54 -53 -73 -5 -73 62 0 94 75 52 123 -23 24 -77 22 -103 -5z"/>
<path d="M5860 4695 c597 -597 1087 -1085 1090 -1085 3 0 -483 488 -1080 1085
-597 597 -1087 1085 -1090 1085 -3 0 483 -488 1080 -1085z"/>
<path d="M3171 4779 c-546 -544 -992 -992 -989 -994 2 -2 451 443 998 990 547
547 993 995 990 995 -3 -1 -452 -446 -999 -991z"/>
<path d="M4338 5721 c-31 -10 -74 -29 -95 -41 -21 -13 -473 -457 -1005 -989
-911 -909 -966 -966 -951 -983 9 -10 21 -18 27 -18 6 0 447 436 981 968 1080
1079 1003 1010 1156 1020 89 5 170 -15 239 -58 25 -16 520 -505 1101 -1087
1148 -1150 1084 -1080 1110 -1220 14 -74 -3 -170 -42 -243 -24 -45 -244 -270
-1097 -1121 -1197 -1196 -1098 -1108 -1264 -1117 -63 -3 -99 0 -134 12 -26 9
-50 14 -52 11 -3 -2 -1 -19 4 -37 9 -31 14 -34 79 -46 91 -17 195 -3 285 39
61 28 137 101 1137 1102 1015 1014 1074 1076 1103 1139 64 137 63 274 0 407
-30 61 -111 145 -1094 1127 -583 584 -1080 1073 -1103 1088 -107 66 -265 85
-385 47z"/>
<path d="M3190 4400 c0 -28 3 -30 35 -30 l35 0 0 -110 0 -110 35 0 35 0 0 110
0 110 35 0 c32 0 35 2 35 30 l0 30 -105 0 -105 0 0 -30z"/>
<path d="M3430 4290 l0 -141 38 3 37 3 3 53 3 52 35 0 34 0 0 -55 0 -55 35 0
35 0 0 140 0 140 -35 0 -35 0 0 -50 0 -50 -34 0 c-34 0 -35 1 -38 48 -3 47 -3
47 -40 50 l-38 3 0 -141z"/>
<path d="M3710 4290 l0 -140 35 0 35 0 0 140 0 140 -35 0 -35 0 0 -140z"/>
<path d="M3845 4405 c-27 -26 -33 -71 -12 -98 6 -9 35 -26 62 -36 35 -13 50
-24 50 -37 0 -28 -40 -30 -58 -4 -11 15 -23 21 -43 18 -24 -2 -29 -7 -26 -28
7 -70 118 -96 173 -41 54 55 32 121 -49 144 -28 9 -48 21 -50 31 -4 21 34 22
46 0 12 -21 66 -15 70 8 2 10 -8 29 -22 43 -35 35 -106 35 -141 0z"/>
<path d="M4185 4405 c-27 -26 -33 -71 -12 -98 6 -9 35 -26 62 -36 35 -13 50
-24 50 -37 0 -28 -40 -30 -58 -4 -11 15 -23 21 -43 18 -24 -2 -29 -7 -26 -28
7 -70 118 -96 173 -41 54 55 32 121 -49 144 -28 9 -48 21 -50 31 -4 21 36 22
44 1 4 -9 19 -15 40 -15 28 0 34 4 34 20 0 12 -11 32 -25 45 -34 35 -106 35
-140 0z"/>
<path d="M4390 4290 l0 -140 100 0 100 0 0 30 c0 29 -1 29 -62 32 -60 3 -63 4
-63 28 0 23 4 25 55 30 51 5 55 7 55 30 0 23 -4 25 -55 30 -40 4 -55 9 -55 20
0 11 14 16 58 18 56 3 57 4 57 32 l0 30 -95 0 -95 0 0 -140z"/>
<path d="M4660 4403 c-89 -80 -41 -253 70 -253 43 0 93 36 105 76 4 18 0 24
-24 32 -28 10 -32 8 -43 -16 -15 -30 -42 -40 -63 -22 -18 15 -20 101 -5 131
14 25 45 24 63 -1 11 -16 21 -19 41 -14 35 8 33 36 -5 68 -43 36 -98 36 -139
-1z"/>
<path d="M4860 4400 c0 -28 3 -30 35 -30 l35 0 0 -110 0 -110 35 0 35 0 0 110
0 110 35 0 c32 0 35 2 35 30 l0 30 -105 0 -105 0 0 -30z"/>
<path d="M5110 4290 l0 -140 35 0 35 0 0 140 0 140 -35 0 -35 0 0 -140z"/>
<path d="M5271 4404 c-62 -52 -65 -162 -6 -221 27 -27 41 -33 77 -33 76 0 118
49 118 140 0 90 -42 140 -116 140 -31 0 -51 -7 -73 -26z m103 -56 c22 -31 20
-91 -3 -119 -16 -21 -22 -22 -45 -11 -23 10 -26 17 -26 62 0 28 5 60 10 71 14
26 45 24 64 -3z"/>
<path d="M5490 4290 l0 -140 35 0 34 0 3 73 3 72 40 -72 c36 -68 42 -73 72
-73 l33 0 0 140 0 140 -30 0 -30 0 0 -65 c0 -36 -4 -65 -8 -65 -4 0 -25 29
-45 65 -35 60 -40 65 -72 65 l-35 0 0 -140z"/>
<path d="M3685 3967 c-18 -15 -28 -36 -32 -64 -5 -37 -2 -46 24 -72 16 -16 48
-35 71 -42 44 -13 59 -33 41 -55 -18 -22 -48 -16 -61 11 -9 19 -19 25 -44 25
-42 0 -48 -11 -30 -53 19 -47 51 -67 107 -67 56 0 93 25 109 75 24 71 -18 126
-113 149 -19 5 -27 12 -25 24 4 23 32 27 51 7 17 -17 72 -21 82 -5 8 13 -22
67 -44 80 -36 19 -107 12 -136 -13z"/>
<path d="M3520 3820 l0 -160 40 0 40 0 0 160 0 160 -40 0 -40 0 0 -160z"/>
<path d="M4040 3849 l0 -131 34 -34 c30 -30 40 -34 86 -34 46 0 56 4 86 34
l34 34 0 131 0 131 -40 0 -39 0 -3 -121 c-3 -103 -6 -124 -20 -133 -13 -8 -23
-8 -35 0 -15 9 -18 30 -21 133 l-3 121 -39 0 -40 0 0 -131z"/>
<path d="M4340 3821 l0 -161 35 0 34 0 3 86 3 85 45 -85 c44 -84 46 -86 83
-86 l37 0 0 160 0 160 -35 0 -34 0 -3 -86 -3 -85 -45 83 c-43 79 -47 83 -83
86 l-37 3 0 -160z"/>
<path d="M4640 3820 l0 -160 78 0 c118 0 154 37 154 160 0 123 -36 160 -154
160 l-78 0 0 -160z m134 74 c11 -10 16 -34 16 -74 0 -63 -15 -90 -51 -90 -17
0 -19 8 -19 90 0 82 2 90 19 90 11 0 27 -7 35 -16z"/>
<path d="M4920 3820 l0 -160 105 0 105 0 0 35 0 35 -65 0 -65 0 0 30 0 30 60
0 60 0 0 35 0 35 -60 0 c-57 0 -60 1 -60 25 0 24 2 25 65 25 l65 0 0 35 0 35
-105 0 -105 0 0 -160z"/>
<path d="M5180 3820 l0 -160 40 0 40 0 0 65 c0 37 4 65 10 65 6 0 25 -29 42
-65 32 -65 32 -65 75 -65 24 0 43 2 43 4 0 9 -48 106 -59 120 -10 11 -7 19 14
40 35 35 35 97 0 131 -22 23 -32 25 -115 25 l-90 0 0 -160z m147 74 c7 -19
-13 -34 -44 -34 -18 0 -23 6 -23 25 0 21 5 25 30 25 19 0 33 -6 37 -16z"/>
<path d="M2555 3470 c-11 -4 -33 -22 -50 -39 -25 -28 -30 -40 -33 -99 -6 -117
42 -173 151 -180 72 -4 116 17 142 69 19 36 14 43 -37 57 -29 8 -38 7 -38 -2
0 -21 -35 -46 -63 -46 -41 0 -57 24 -57 85 0 46 4 56 26 74 35 27 50 26 78 -4
22 -23 25 -24 65 -12 l42 12 -23 35 c-13 19 -35 40 -48 47 -28 14 -124 16
-155 3z"/>
<path d="M2895 3461 c-69 -42 -95 -109 -75 -193 21 -85 93 -127 197 -115 83 9
133 70 133 162 0 62 -25 113 -69 142 -44 30 -141 32 -186 4z m132 -77 c22 -22
25 -32 21 -74 -6 -61 -21 -80 -64 -80 -47 0 -64 22 -64 84 0 52 12 79 40 89
29 10 41 7 67 -19z"/>
<path d="M3202 3318 l3 -163 45 0 45 0 3 84 3 83 60 -86 60 -86 45 0 44 0 0
165 0 165 -45 0 -44 0 -3 -87 -3 -88 -60 87 -60 87 -48 1 -47 0 2 -162z"/>
<path d="M3619 3466 c-32 -18 -53 -66 -44 -98 12 -39 36 -58 94 -74 31 -9 62
-21 69 -26 18 -15 15 -36 -6 -47 -27 -14 -58 -3 -71 26 -11 23 -15 25 -53 19
-23 -4 -44 -9 -47 -12 -2 -2 3 -20 12 -40 20 -42 66 -64 132 -64 91 0 145 42
145 113 0 50 -34 82 -105 98 -66 15 -80 23 -72 43 9 23 54 20 67 -4 15 -29
100 -29 100 -1 0 11 -11 32 -24 48 -21 25 -31 28 -97 30 -51 2 -82 -1 -100
-11z"/>
<path d="M3880 3440 l0 -40 50 0 49 0 3 -122 3 -123 47 -3 47 -3 3 123 3 123
53 3 53 3 -3 37 -3 37 -152 3 -153 3 0 -41z"/>
<path d="M4230 3316 l0 -166 50 0 50 0 0 66 c0 56 2 65 17 62 9 -2 33 -30 53
-63 36 -60 37 -60 88 -63 30 -2 52 1 52 7 0 19 -71 131 -83 131 -7 1 0 7 15
16 53 28 64 94 24 141 -24 27 -27 28 -145 31 l-121 4 0 -166z m185 64 c0 -22
-5 -25 -42 -28 -42 -3 -43 -2 -43 28 0 30 1 31 43 28 37 -3 42 -6 42 -28z"/>
<path d="M4570 3368 c0 -132 14 -173 70 -200 42 -22 118 -23 165 -4 61 26 75
64 75 199 l0 117 -50 0 -50 0 0 -106 c0 -125 -7 -144 -55 -144 -48 0 -55 19
-55 144 l0 106 -50 0 -50 0 0 -112z"/>
<path d="M5013 3465 c-86 -37 -107 -199 -35 -268 86 -82 245 -52 264 48 2 13
-7 21 -37 29 -38 12 -41 11 -57 -16 -22 -35 -81 -40 -98 -9 -14 28 -12 114 4
136 19 26 75 25 93 -2 12 -17 20 -19 49 -13 46 11 50 15 36 45 -27 58 -140 85
-219 50z"/>
<path d="M5270 3440 l0 -40 50 0 49 0 3 -122 3 -123 50 0 50 0 3 123 3 122 49
0 50 0 0 40 0 40 -155 0 -155 0 0 -40z"/>
<path d="M5625 3468 c-3 -8 -4 -81 -3 -163 l3 -150 50 0 50 0 0 160 0 160 -48
3 c-33 2 -49 -1 -52 -10z"/>
<path d="M5860 3462 c-51 -25 -83 -91 -77 -160 7 -90 62 -143 155 -150 143
-10 225 118 160 248 -29 56 -73 80 -148 80 -32 0 -69 -7 -90 -18z m131 -71
c19 -15 23 -28 23 -74 0 -31 -5 -62 -13 -71 -14 -17 -67 -21 -88 -8 -38 24
-38 130 0 157 29 20 50 19 78 -4z"/>
<path d="M6170 3316 l0 -166 45 0 44 0 3 88 3 87 61 -85 c60 -84 61 -85 107
-88 l47 -3 0 166 0 166 -47 -3 -48 -3 -3 -84 -3 -84 -57 84 c-57 84 -57 84
-104 87 l-48 3 0 -165z"/>
<path d="M1820 3464 c-61 -11 -151 -37 -156 -46 -3 -5 14 -6 44 -2 102 13 348
7 487 -12 66 -9 156 -34 182 -51 22 -14 25 -14 43 2 71 64 -62 103 -380 110
-107 2 -206 2 -220 -1z"/>
<path d="M7110 3392 c11 -29 20 -69 19 -90 0 -20 -3 -30 -6 -22 -28 77 -143
60 -143 -21 0 -46 19 -44 73 7 l52 49 -49 -52 c-50 -52 -53 -73 -11 -73 39 0
55 11 75 51 29 56 22 136 -15 184 -10 14 -8 4 5 -33z"/>
<path d="M7132 3208 c-1 -21 -11 -61 -22 -90 -13 -37 -15 -47 -4 -33 20 27 36
90 31 128 -4 31 -4 30 -5 -5z"/>
<path d="M3060 2774 c0 -152 1 -165 18 -162 14 3 17 17 20 91 3 80 5 88 27
103 32 21 71 12 79 -18 3 -13 6 -58 6 -101 0 -69 2 -78 18 -75 14 3 17 17 20
89 3 107 -6 133 -52 149 -29 9 -41 9 -66 -3 l-30 -15 0 54 c0 47 -2 54 -20 54
-19 0 -20 -7 -20 -166z"/>
<path d="M3782 2778 c3 -146 5 -163 21 -166 14 -3 17 4 17 46 0 81 20 85 70
13 37 -56 61 -73 73 -53 3 4 -15 38 -40 76 l-44 69 42 43 c41 41 42 44 19 44
-16 0 -42 -17 -72 -47 l-48 -47 0 92 c0 86 -1 92 -20 92 -20 0 -20 -5 -18
-162z"/>
<path d="M4130 2775 c0 -158 1 -165 20 -165 11 0 20 7 20 16 0 14 2 14 22 0
28 -20 51 -20 87 -2 35 19 51 55 51 116 0 84 -67 138 -131 106 l-29 -14 0 54
c0 47 -2 54 -20 54 -19 0 -20 -7 -20 -165z m144 23 c25 -36 21 -104 -9 -133
-13 -14 -29 -25 -35 -25 -25 0 -60 49 -60 85 0 82 66 128 104 73z"/>
<path d="M4860 2775 c0 -158 1 -165 20 -165 17 0 20 7 20 49 0 77 19 81 66 13
37 -53 74 -79 74 -51 0 7 -19 41 -42 76 l-41 64 44 45 c43 43 43 44 17 44 -19
0 -40 -14 -72 -47 l-46 -48 0 93 c0 85 -1 92 -20 92 -19 0 -20 -7 -20 -165z"/>
<path d="M5870 1823 l-1095 -1098 1098 1095 c603 602 1097 1096 1097 1097 0 2
-1 3 -3 3 -1 0 -495 -494 -1097 -1097z"/>
<path d="M2225 2864 c-18 -14 -12 -22 140 -174 134 -134 161 -157 177 -149 10
5 18 15 18 22 0 11 -300 317 -310 317 -3 0 -14 -7 -25 -16z"/>
<path d="M2883 2845 c-71 -31 -86 -152 -24 -207 41 -37 88 -37 130 -2 36 30
41 64 11 64 -11 0 -20 -6 -20 -14 0 -17 -37 -46 -58 -46 -7 0 -24 11 -37 25
-40 39 -29 136 17 151 29 9 66 -4 73 -25 4 -13 12 -17 25 -14 26 7 25 16 -2
47 -29 31 -74 40 -115 21z"/>
<path d="M3374 2853 c-64 -12 -102 -116 -67 -183 23 -45 57 -62 113 -56 50 5
101 49 80 70 -7 7 -15 7 -24 1 -64 -47 -65 -48 -95 -35 -18 7 -34 24 -40 41
l-10 29 90 0 c89 0 89 0 89 25 0 42 -29 85 -65 101 -19 8 -38 13 -42 13 -4 -1
-18 -4 -29 -6z m76 -53 c33 -33 24 -40 -51 -40 -73 0 -75 2 -41 43 20 23 67
22 92 -3z"/>
<path d="M3625 2853 c-57 -14 -94 -93 -75 -161 13 -51 40 -73 94 -79 40 -5 48
-2 76 25 16 17 30 38 30 46 0 23 -37 20 -45 -4 -14 -43 -84 -49 -105 -10 -17
33 -12 115 8 133 26 23 69 22 84 -3 15 -23 48 -27 48 -6 0 19 -27 45 -57 57
-26 9 -26 10 -58 2z"/>
<path d="M4435 2850 c-31 -10 -55 -34 -55 -57 0 -20 34 -15 48 7 8 13 23 20
45 20 36 0 57 -15 57 -41 0 -14 -12 -19 -57 -25 -64 -8 -103 -37 -103 -79 0
-56 70 -83 132 -51 23 12 29 12 39 0 6 -8 17 -14 24 -14 20 0 8 200 -14 222
-20 21 -77 30 -116 18z m95 -140 c0 -49 -81 -90 -110 -55 -22 26 -7 49 40 62
64 16 70 16 70 -7z"/>
<path d="M4682 2845 c-60 -27 -81 -124 -39 -186 28 -42 64 -56 114 -43 26 6
43 19 56 41 17 30 17 34 3 39 -10 4 -26 -5 -45 -25 -33 -36 -50 -38 -82 -13
-30 25 -33 109 -5 141 25 27 72 28 86 1 12 -22 50 -27 50 -7 0 21 -43 56 -75
62 -17 3 -45 -2 -63 -10z"/>
<path d="M5244 2846 c-31 -14 -44 -33 -44 -65 0 -26 27 -46 87 -65 57 -19 66
-26 57 -49 -12 -33 -89 -30 -99 4 -8 25 -45 25 -45 0 0 -50 90 -77 150 -46 68
35 45 100 -44 128 -58 19 -80 42 -55 58 24 15 57 10 78 -12 20 -21 41 -19 41
5 0 38 -77 63 -126 42z"/>
<path d="M5480 2842 c-68 -33 -79 -145 -20 -204 47 -46 124 -35 160 24 39 64
17 158 -44 183 -45 19 -53 19 -96 -3z m93 -39 c38 -44 27 -136 -19 -153 -37
-15 -70 3 -84 45 -21 63 9 125 60 125 15 0 34 -8 43 -17z"/>
<path d="M5730 2843 c-68 -35 -79 -146 -20 -205 60 -60 159 -22 176 66 19 107
-67 183 -156 139z m93 -40 c38 -44 27 -136 -19 -153 -37 -15 -70 3 -84 45 -21
63 9 125 60 125 15 0 34 -8 43 -17z"/>
<path d="M6008 2846 c-16 -8 -28 -11 -28 -5 0 5 -11 9 -25 9 l-26 0 3 -117 c3
-110 4 -118 23 -118 18 0 20 8 23 85 3 91 17 120 57 120 36 0 44 -20 47 -116
3 -81 5 -89 23 -89 19 0 20 7 20 97 0 84 -3 100 -20 117 -28 28 -65 34 -97 17z"/>
<path d="M1850 2784 c0 -14 57 -70 68 -68 7 1 8 0 2 -3 -12 -6 -2 -49 19 -82
9 -14 19 -50 23 -80 16 -120 19 -131 42 -136 115 -23 124 -27 131 -52 3 -14 4
-27 2 -30 -3 -2 -33 0 -68 6 -35 5 -75 9 -89 8 -14 0 -53 5 -86 11 -39 7 -76
7 -100 1 -22 -4 -58 -9 -80 -9 -46 0 -54 -10 -54 -62 l0 -31 52 7 c28 4 59 11
69 17 18 9 69 -6 69 -22 0 -4 10 -7 23 -8 12 0 69 -5 127 -10 58 -5 115 -10
127 -10 18 -1 21 -6 18 -33 -2 -18 -4 -39 -4 -46 -1 -10 -11 -12 -38 -8 -21 4
-54 8 -73 10 -20 3 -82 17 -139 31 -57 15 -118 27 -136 27 -40 0 -92 -26 -99
-50 -8 -25 -26 -215 -21 -221 3 -2 25 2 49 9 52 14 79 9 155 -29 140 -71 156
-84 182 -147 21 -49 39 -70 39 -44 0 6 -4 10 -9 10 -6 0 3 15 20 32 16 18 29
36 29 41 0 5 8 6 18 3 16 -6 16 -5 -1 8 -14 10 -15 15 -5 19 8 3 5 6 -6 6 -18
1 -18 2 -2 19 14 17 15 28 6 92 -6 40 -8 75 -5 78 3 3 15 1 28 -5 30 -15 158
-43 193 -43 34 0 25 10 -29 32 -41 17 -41 17 -12 18 17 1 37 3 45 4 78 16 119
14 178 -5 60 -20 70 -20 180 -9 64 7 121 17 125 23 4 7 5 35 2 63 -5 42 -3 53
15 69 21 19 21 18 58 -18 35 -36 36 -37 12 -37 -34 0 -15 -14 55 -40 52 -19
72 -21 150 -15 50 4 106 10 125 14 l35 7 -52 19 c-29 10 -53 22 -53 27 0 4
-37 6 -82 4 l-83 -3 -52 51 c-29 28 -53 56 -53 64 0 7 -15 -2 -32 -21 -38 -39
-130 -77 -188 -77 -46 0 -88 14 -115 40 -19 18 -23 20 -45 20 -5 0 -22 18 -37
41 -20 30 -23 43 -14 48 8 5 10 21 6 47 -5 25 -1 55 10 84 22 63 26 82 13 74
-26 -16 -49 -94 -47 -161 3 -78 15 -108 64 -158 26 -25 35 -43 35 -67 l0 -34
-72 -11 c-40 -6 -76 -9 -80 -7 -5 3 -8 21 -8 39 0 42 -23 51 -110 42 -54 -6
-58 -5 -64 16 -3 12 -6 31 -6 42 0 22 -4 21 133 26 42 1 47 4 47 25 0 13 -5
24 -10 24 -6 0 -9 3 -9 8 7 40 2 42 -86 36 l-85 -7 0 37 c0 29 4 36 20 36 11
0 19 3 18 8 -2 12 13 42 22 42 5 0 12 -9 15 -20 3 -11 11 -20 17 -20 11 0 1
77 -12 95 -10 13 -12 59 -6 174 1 24 -5 37 -19 45 -11 6 -23 15 -26 20 -6 7
-74 35 -88 36 -2 0 3 -8 12 -18 20 -22 22 -46 12 -196 l-8 -120 -38 80 c-41
84 -121 185 -185 234 -35 27 -74 39 -74 24z m146 -121 c-8 -8 -36 10 -36 25 0
13 3 12 20 -3 11 -10 18 -20 16 -22z m-31 -22 c3 -5 1 -12 -5 -16 -5 -3 -10 1
-10 9 0 18 6 21 15 7z m30 -52 c16 -31 15 -46 -3 -35 -9 5 -23 66 -16 66 2 0
11 -14 19 -31z m85 -118 c17 -32 13 -43 -10 -31 -11 6 -20 20 -20 30 0 25 16
26 30 1z m-25 -150 c3 -5 1 -12 -5 -16 -5 -3 -10 1 -10 9 0 18 6 21 15 7z m26
-34 c-1 -12 -15 -9 -19 4 -3 6 1 10 8 8 6 -3 11 -8 11 -12z m546 -219 c-2 -13
-4 -5 -4 17 -1 22 1 32 4 23 2 -10 2 -28 0 -40z"/>
<path d="M1796 2722 c34 -85 50 -193 35 -241 -12 -41 -70 -101 -97 -101 -17 0
-74 55 -74 71 0 5 -5 9 -11 9 -14 0 -4 -46 18 -79 13 -20 21 -23 54 -18 43 6
128 55 129 75 0 14 16 16 25 2 3 -5 15 -10 27 -10 19 0 20 4 13 56 -4 31 -13
74 -21 96 -8 22 -14 53 -14 68 0 37 -19 72 -57 104 -47 39 -53 32 -27 -32z"/>
<path d="M2326 2580 c6 -134 10 -160 25 -160 12 0 11 81 -2 177 -18 130 -30
121 -23 -17z"/>
<path d="M2688 2553 c7 -3 16 -2 19 1 4 3 -2 6 -13 5 -11 0 -14 -3 -6 -6z"/>
<path d="M2738 2543 c7 -3 16 -2 19 1 4 3 -2 6 -13 5 -11 0 -14 -3 -6 -6z"/>
<path d="M2572 2514 c-17 -14 -37 -35 -43 -47 -8 -16 -5 -15 13 6 12 15 37 36
53 47 17 11 26 20 20 20 -5 0 -25 -12 -43 -26z"/>
<path d="M2240 2421 c0 -5 5 -13 10 -16 6 -3 10 -2 10 4 0 5 -4 13 -10 16 -5
3 -10 2 -10 -4z"/>
<path d="M2503 2375 c0 -22 2 -30 4 -17 2 12 2 30 0 40 -3 9 -5 -1 -4 -23z"/>
<path d="M2860 2355 c0 -31 -29 -72 -69 -98 -23 -15 -41 -24 -41 -21 0 4 -8 0
-17 -7 -14 -12 -16 -12 -8 0 6 10 4 12 -4 7 -18 -11 -61 -15 -61 -5 0 4 -8 6
-19 4 -26 -5 -79 30 -99 65 -9 16 -20 30 -24 30 -23 0 16 -65 58 -96 27 -21
50 -29 95 -32 73 -5 99 1 140 35 44 38 87 133 59 133 -5 0 -10 -7 -10 -15z"/>
<path d="M3853 2236 c-51 -5 -93 -12 -93 -15 0 -4 37 -19 83 -34 77 -25 88
-26 167 -17 47 5 90 9 95 9 22 -2 -43 -17 -80 -19 -86 -3 -84 -9 27 -102 56
-48 103 -86 104 -85 1 1 -1 49 -5 106 l-6 104 -70 25 c-105 36 -122 38 -222
28z"/>
<path d="M3412 2188 c-46 -6 -80 -14 -75 -18 4 -4 39 -18 76 -30 60 -19 80
-21 168 -15 54 4 99 11 99 15 0 10 -140 60 -165 59 -11 -1 -58 -6 -103 -11z"/>
<path d="M3608 2118 c-49 -6 -88 -13 -87 -17 0 -3 56 -53 125 -111 77 -65 119
-107 111 -111 -6 -3 -36 -9 -66 -12 -29 -4 -55 -8 -57 -9 -1 -2 -10 -70 -18
-152 -9 -82 -18 -152 -21 -155 -3 -3 -65 54 -137 127 -73 72 -129 134 -126
137 4 4 42 11 85 16 43 5 92 11 110 14 l32 6 -112 96 c-62 53 -122 105 -134
116 -21 18 -27 19 -142 7 l-121 -13 42 -36 c24 -20 83 -72 133 -116 l89 -80
-37 -5 -37 -5 175 -175 c185 -185 182 -180 168 -263 l-6 -39 -231 230 c-127
126 -236 231 -243 233 -6 2 -71 55 -144 118 l-132 114 -116 -13 c-64 -6 -117
-13 -119 -15 -1 -1 56 -55 128 -119 l130 -117 126 13 125 12 239 -239 239
-240 -14 -120 c-8 -66 -17 -135 -21 -153 -6 -31 -4 -33 35 -50 73 -30 91 -25
-309 -89 -218 -34 -294 -49 -268 -54 23 -3 58 -25 103 -63 66 -56 68 -57 114
-50 80 11 80 16 1 80 l-73 59 56 8 56 8 75 -61 74 -61 51 7 c28 4 54 10 56 14
3 5 -26 32 -65 61 -38 29 -67 55 -65 58 3 2 27 8 55 12 46 7 54 6 78 -16 107
-94 128 -103 207 -86 l30 6 -73 60 c-73 59 -73 60 -45 66 64 15 78 10 150 -51
70 -58 73 -60 118 -54 25 4 48 10 51 15 2 4 -25 32 -61 61 -70 56 -70 62 2 69
25 3 44 -6 92 -45 34 -27 61 -53 61 -58 0 -4 15 -8 33 -8 48 0 107 12 107 20
0 5 -30 32 -67 62 l-67 53 29 6 c62 13 84 9 120 -22 20 -18 38 -29 41 -26 9 8
-6 64 -19 75 -8 7 -59 2 -152 -14 -168 -28 -165 -28 -165 -9 0 8 -18 26 -40
40 -42 27 -48 45 -34 115 l7 32 68 -68 c38 -38 69 -62 69 -54 0 46 -24 90 -79
144 l-60 59 -14 -35 c-19 -44 -29 -51 -61 -38 -14 5 -27 6 -30 2 -4 -6 -32 -7
-67 -3 -13 2 -31 62 -31 100 0 21 5 57 11 78 12 43 53 89 70 78 6 -3 11 -1 11
4 0 6 11 11 25 11 14 0 25 6 25 13 0 8 4 7 10 -3 8 -13 14 -8 12 11 -1 3 5 6
13 6 7 0 11 -6 8 -14 -3 -7 1 -13 9 -13 8 0 15 -12 16 -27 3 -37 12 -42 13 -7
1 74 15 66 38 -22 13 -49 28 -93 34 -99 7 -7 8 -6 3 3 -4 6 -2 12 3 12 6 0 11
-4 11 -10 0 -5 4 -10 9 -10 9 0 -5 69 -74 365 -47 201 -48 193 30 194 22 1 46
5 52 9 14 9 -229 226 -256 228 -9 1 -55 -3 -103 -8z"/>
<path d="M2144 1963 c2 -16 8 -55 11 -88 12 -120 14 -125 42 -114 13 5 26 9
29 9 9 0 2 -53 -47 -318 -64 -350 -76 -404 -96 -419 -13 -10 -14 -17 -4 -41 9
-22 9 -44 1 -95 -7 -37 -16 -70 -21 -73 -35 -21 27 -66 82 -59 213 27 209 27
209 45 0 10 -5 20 -10 22 -6 2 -8 17 -4 36 l7 32 73 0 c73 0 104 13 104 45 0
10 -17 12 -82 8 l-81 -6 7 57 c4 38 3 55 -4 51 -5 -3 -10 -12 -10 -19 0 -17
-56 -33 -106 -31 -61 3 -67 10 -60 69 13 110 18 136 27 136 5 0 8 3 8 8 -5 31
15 47 72 57 18 3 38 10 44 15 7 6 16 5 25 -3 10 -9 11 -9 6 1 -4 6 -2 12 3 12
6 0 11 -7 11 -15 0 -8 4 -15 8 -15 4 0 7 -17 6 -37 -2 -21 0 -28 2 -16 3 12
20 90 38 175 37 173 34 176 67 -62 18 -127 38 -210 52 -210 9 0 1 93 -29 324
-19 148 -33 270 -31 273 3 2 35 9 73 14 37 5 69 10 70 12 1 1 -60 55 -137 120
-109 92 -144 117 -168 117 -16 0 -31 -5 -33 -11 -2 -5 0 -45 4 -87 3 -42 7
-99 7 -127 1 -43 -1 -47 -13 -35 -9 9 -20 54 -26 105 -16 134 -14 129 -67 148
-63 22 -66 22 -59 -10z"/>
<path d="M2367 1090 c-3 -11 -1 -20 4 -20 5 0 9 9 9 20 0 11 -2 20 -4 20 -2 0
-6 -9 -9 -20z"/>
<path d="M2909 845 c-3 -2 -22 -7 -43 -10 -86 -10 -122 -16 -151 -22 -16 -4
-39 -7 -50 -7 -24 -1 -25 -18 -5 -198 l14 -128 37 0 c33 0 135 19 192 36 24 8
21 41 -7 67 -13 13 -27 39 -31 60 -4 22 -13 37 -22 37 -13 0 -155 112 -149
117 2 2 24 7 50 12 l48 9 73 -64 73 -64 59 11 c32 6 59 12 61 14 2 2 -29 29
-69 61 -67 55 -70 59 -48 65 l24 7 -26 1 c-14 1 -28 -1 -30 -4z"/>
<path d="M4020 782 c0 -36 42 -62 99 -62 46 0 59 -5 89 -31 20 -18 66 -46 102
-63 60 -29 73 -31 170 -31 108 0 159 14 215 59 11 9 -9 1 -44 -17 -60 -30 -71
-32 -170 -32 -93 0 -113 3 -161 26 -56 26 -120 74 -120 89 0 5 18 11 41 15 71
12 35 16 -45 4 -101 -14 -132 -7 -140 32 -6 32 -36 41 -36 11z"/>
<path d="M4410 728 c-21 -23 -27 -72 -9 -84 6 -3 34 16 62 42 l52 49 -49 -52
c-50 -52 -53 -73 -11 -73 37 0 55 10 70 41 37 71 -59 136 -115 77z"/>
</g>
</svg>
