<?xml version="1.0" standalone="no"?>
<!DOCTYPE svg PUBLIC "-//W3C//DTD SVG 20010904//EN"
 "http://www.w3.org/TR/2001/REC-SVG-20010904/DTD/svg10.dtd">
<svg version="1.0" xmlns="http://www.w3.org/2000/svg"
 width="275.000000pt" height="183.000000pt" viewBox="0 0 275.000000 183.000000"
 preserveAspectRatio="xMidYMid meet">

<g transform="translate(0.000000,183.000000) scale(0.100000,-0.100000)"
fill="#000000" stroke="none">
<path d="M1229 1680 c-21 -12 -43 -65 -35 -85 3 -9 -2 -28 -12 -43 -11 -18
-12 -23 -3 -18 9 6 12 5 9 -5 -3 -8 -10 -14 -17 -14 -16 0 -30 -25 -24 -42 3
-8 1 -13 -4 -11 -6 2 -65 -79 -131 -179 -67 -101 -128 -183 -136 -183 -8 0
-18 -5 -21 -10 -9 -15 14 -40 37 -40 16 0 19 5 14 24 -5 19 17 55 107 183 61
87 132 189 156 225 37 56 47 65 62 58 29 -16 32 -12 10 16 -27 34 -27 84 -1
112 22 23 17 28 -11 12z m-68 -193 c-10 -9 -11 -8 -5 6 3 10 9 15 12 12 3 -3
0 -11 -7 -18z"/>
<path d="M1331 1664 c11 -14 10 -18 -6 -30 -19 -14 -19 -14 4 -12 13 2 26 -3
29 -11 3 -10 -1 -12 -18 -8 -12 3 -19 3 -16 0 3 -3 -2 -12 -12 -19 -15 -12
-15 -12 6 -7 13 3 22 1 22 -6 0 -6 -7 -11 -15 -11 -9 0 -12 -6 -8 -16 3 -9 9
-12 12 -7 7 11 42 27 53 25 4 -1 5 6 2 16 -7 21 120 -110 191 -198 28 -36 82
-93 119 -126 36 -34 66 -65 66 -69 0 -3 -26 -38 -57 -76 -61 -74 -58 -73 -186
-84 l-69 -6 48 61 c26 33 53 65 60 71 26 21 14 25 -58 18 -40 -4 -82 -8 -93
-8 -12 -1 -44 -31 -83 -80 l-63 -78 -91 -7 c-50 -4 -92 -5 -94 -3 -3 2 21 35
51 72 31 37 54 70 51 72 -2 2 -35 1 -74 -2 l-69 -7 -62 -78 -62 -77 -91 -7
c-50 -4 -92 -5 -94 -4 -2 2 22 35 52 73 31 38 51 71 45 73 -5 2 -42 -1 -81 -7
-51 -7 -79 -16 -95 -31 -48 -46 -49 -50 -15 -456 33 -396 37 -418 85 -450 19
-12 25 -8 75 56 48 60 60 69 95 74 77 10 155 16 155 11 0 -3 -25 -36 -55 -72
-30 -37 -55 -70 -55 -73 0 -3 19 -4 43 -2 96 7 101 9 158 79 30 36 57 70 60
76 7 10 188 31 196 23 3 -2 -21 -35 -52 -73 -64 -78 -63 -79 51 -68 l72 7 65
77 65 78 69 6 c137 13 133 17 64 -65 -33 -40 -58 -74 -56 -76 1 -2 36 0 77 4
l75 7 63 77 62 78 83 7 c46 4 89 5 95 3 8 -2 -11 -31 -45 -71 -31 -38 -55 -71
-52 -74 3 -3 22 0 41 7 38 12 73 49 82 85 8 32 -55 765 -68 789 -9 17 -12 18
-22 5 -54 -72 -49 -70 -148 -78 -51 -4 -95 -6 -97 -4 -3 2 3 11 12 20 11 11
17 13 17 5 0 -15 32 -16 48 0 19 19 14 38 -9 38 -18 0 -17 5 16 44 l36 45 -58
-5 c-32 -3 -65 -7 -75 -8 -10 -2 -67 48 -155 139 -250 258 -285 297 -271 306
10 7 8 9 -5 9 -10 0 -20 7 -23 15 -4 8 -11 15 -16 15 -6 0 -4 -7 3 -16z m39
-78 c0 -3 -4 -8 -10 -11 -5 -3 -10 -1 -10 4 0 6 5 11 10 11 6 0 10 -2 10 -4z
m261 -687 c6 -12 9 -29 6 -40 -3 -10 -1 -37 4 -60 8 -32 7 -44 -3 -50 -22 -14
-33 -4 -39 37 l-6 39 -2 -42 c-1 -39 -3 -43 -26 -43 -23 0 -25 4 -25 44 0 24
-3 64 -6 90 l-7 46 46 0 c37 0 49 -4 58 -21z m-111 -4 c0 -8 -7 -15 -15 -15
-8 0 -15 -7 -15 -15 0 -8 7 -15 15 -15 8 0 15 -9 15 -20 0 -11 -4 -20 -10 -20
-5 0 -10 -9 -10 -20 0 -11 7 -20 15 -20 20 0 19 -26 -1 -34 -9 -3 -27 -6 -40
-6 -22 0 -24 4 -24 44 0 24 -3 64 -6 90 l-7 46 42 0 c30 0 41 -4 41 -15z
m-216 -17 c3 -13 7 -53 11 -89 5 -61 4 -67 -15 -72 -16 -4 -24 2 -35 26 l-14
32 2 -30 c1 -21 -3 -31 -15 -33 -20 -4 -24 11 -32 111 -5 61 -4 67 14 67 11 0
26 -12 35 -27 l16 -28 -4 27 c-4 25 3 35 25 37 4 1 10 -9 12 -21z m114 10 c5
-7 13 -43 17 -80 6 -67 6 -68 -20 -78 -14 -5 -40 -10 -56 -10 -27 0 -29 3 -29
38 0 20 -3 61 -6 90 l-7 52 45 0 c25 0 50 -6 56 -12z m-226 -74 c4 -38 5 -77
2 -86 -11 -38 -90 -34 -98 5 -3 12 -7 50 -9 85 -5 59 -4 62 17 62 21 0 24 -7
34 -77 l11 -78 -5 77 c-3 56 -1 77 8 81 26 11 33 -1 40 -69z m848 -168 c0 -24
3 -64 6 -90 6 -42 5 -46 -15 -46 -14 0 -26 11 -36 33 l-15 32 4 -32 c5 -28 -6
-43 -29 -43 -4 0 -11 55 -18 133 -4 43 -3 47 17 47 15 0 26 -9 33 -27 l11 -28
1 33 c1 25 5 32 21 32 17 0 20 -7 20 -44z m-132 22 c5 -7 13 -43 17 -80 7 -64
6 -67 -18 -83 -54 -35 -87 3 -87 100 0 41 4 56 18 64 24 14 58 13 70 -1z
m-104 -59 c11 -108 9 -121 -16 -117 -21 3 -23 9 -26 71 -3 60 -5 67 -23 67
-20 0 -20 -4 -14 -76 8 -76 7 -76 -16 -72 -22 3 -25 9 -29 64 -3 39 -11 67
-23 78 -9 10 -15 22 -12 27 9 14 95 11 95 -3 0 -7 5 -5 11 5 5 9 18 17 28 17
15 0 19 -11 25 -61z m-186 35 c26 -18 29 -59 6 -68 -20 -8 -20 -7 -33 24 -9
23 -10 23 -9 -10 0 -19 4 -48 8 -65 l8 -30 1 28 c1 22 6 27 26 27 20 0 25 -5
25 -24 0 -33 -25 -56 -60 -56 -35 0 -45 17 -53 88 -7 62 -2 81 27 92 29 12 29
12 54 -6z m-157 -41 c0 -21 4 -56 9 -78 7 -30 7 -20 3 38 l-5 77 26 0 c23 0
26 -4 26 -37 0 -21 3 -54 6 -74 7 -43 -14 -69 -56 -69 -37 0 -46 17 -55 108
l-7 72 26 0 c23 0 26 -4 27 -37z m-72 13 c7 -8 12 -28 10 -43 -1 -15 1 -35 5
-45 12 -27 3 -73 -16 -76 -12 -2 -19 8 -27 40 l-11 43 4 -42 c4 -39 2 -43 -19
-43 -26 0 -35 29 -35 112 0 46 -1 48 -17 33 -12 -13 -16 -33 -14 -86 2 -63 1
-69 -17 -69 -25 0 -32 18 -32 86 0 41 -4 54 -15 54 -8 0 -15 9 -15 19 0 16 8
20 43 23 129 9 144 9 156 -6z m-211 -35 c3 -15 -2 -21 -16 -21 -11 0 -23 6
-25 13 -4 8 -6 7 -6 -3 -1 -9 13 -24 29 -33 24 -14 30 -25 30 -51 0 -39 -15
-56 -51 -56 -31 0 -52 21 -47 47 5 27 34 28 42 1 5 -16 9 -19 13 -9 3 8 -9 26
-32 45 -28 24 -36 38 -33 56 7 49 89 59 96 11z m-163 -13 l14 -33 1 33 c0 24
4 32 19 32 16 0 19 -11 24 -82 5 -60 3 -84 -6 -90 -20 -13 -26 -9 -41 25 l-15
32 6 -32 c5 -28 3 -33 -15 -33 -22 0 -30 31 -33 120 -1 60 -1 60 16 60 9 0 22
-15 30 -32z m-77 9 c18 -21 26 -121 13 -146 -17 -31 -71 -26 -88 9 -16 32 -17
122 -1 138 16 16 63 15 76 -1z m-113 -9 c3 -7 6 -24 7 -38 2 -19 -2 -26 -19
-28 -19 -3 -23 1 -23 22 0 14 -5 26 -11 26 -8 0 -9 -11 -5 -31 3 -17 6 -45 6
-62 0 -17 3 -27 7 -23 4 4 8 15 8 24 0 10 9 18 23 20 18 3 22 -1 22 -25 0 -38
-16 -53 -57 -53 -27 0 -35 5 -43 26 -14 36 -12 128 2 142 16 16 77 15 83 0z"/>
<path d="M1582 870 c0 -14 2 -19 5 -12 2 6 2 18 0 25 -3 6 -5 1 -5 -13z"/>
<path d="M1372 840 c0 -19 4 -46 8 -60 7 -23 8 -22 8 10 0 19 -4 46 -8 60 -7
23 -8 22 -8 -10z"/>
<path d="M1867 588 c8 -72 13 -73 13 -5 0 32 -4 57 -10 57 -5 0 -7 -22 -3 -52z"/>
<path d="M1351 574 c0 -11 3 -14 6 -6 3 7 2 16 -1 19 -3 4 -6 -2 -5 -13z"/>
<path d="M896 503 c9 -76 14 -80 14 -10 0 31 -5 59 -10 62 -7 4 -8 -13 -4 -52z"/>
</g>
</svg>
